<?xml version="1.0" encoding="utf-8"?>
<!-- Generator: Adobe Illustrator 21.0.0, SVG Export Plug-In . SVG Version: 6.00 Build 0)  -->
<svg version="1.1"
	 id="Layer_1" inkscape:version="0.92.2 (5c3e80d, 2017-08-06)" sodipodi:docname="pin.svg" xmlns:cc="http://creativecommons.org/ns#" xmlns:dc="http://purl.org/dc/elements/1.1/" xmlns:inkscape="http://www.inkscape.org/namespaces/inkscape" xmlns:rdf="http://www.w3.org/1999/02/22-rdf-syntax-ns#" xmlns:sodipodi="http://sodipodi.sourceforge.net/DTD/sodipodi-0.dtd" xmlns:svg="http://www.w3.org/2000/svg"
	 xmlns="http://www.w3.org/2000/svg" xmlns:xlink="http://www.w3.org/1999/xlink" x="0px" y="0px" viewBox="0 0 512 512"
	 style="enable-background:new 0 0 512 512;" xml:space="preserve">
<style type="text/css">
	.st0{fill:#E14612;}
	.st1{fill:#FFFFFF;}
</style>
<sodipodi:namedview  bordercolor="#666666" borderopacity="1" gridtolerance="10" guidetolerance="10" id="namedview39" inkscape:current-layer="Layer_1" inkscape:cx="-205.04501" inkscape:cy="210.61036" inkscape:pageopacity="0" inkscape:pageshadow="2" inkscape:window-height="1001" inkscape:window-maximized="1" inkscape:window-width="1920" inkscape:window-x="-9" inkscape:window-y="-9" inkscape:zoom="0.65186406" objecttolerance="10" pagecolor="#ffffff" showgrid="false">
	</sodipodi:namedview>
<g id="pin">
	<path id="path927" inkscape:connector-curvature="0" class="st0" d="M256,0C153.8,0,70.6,83.2,70.6,185.4
		c0,126.9,165.9,313.2,173,321c6.6,7.4,18.2,7.4,24.8,0c7.1-7.9,173-194.1,173-321C441.4,83.2,358.2,0,256,0z"/>
	<path id="path850" inkscape:connector-curvature="0" class="st1" d="M258.2,116.5c-67.1,0-120.7,58.4-122.9,60.9
		c-2.5,2.8-2.5,7,0,9.8c2.2,2.5,55.8,60.9,122.9,60.9s120.7-58.4,122.9-60.9c2.5-2.8,2.5-7,0-9.8
		C378.8,174.9,325.3,116.5,258.2,116.5z M258.2,131.1c28.2,0,51.2,23,51.2,51.2s-23,51.2-51.2,51.2s-51.2-23-51.2-51.2
		S230,131.1,258.2,131.1z M258.2,145.7c-20.2,0-36.5,16.4-36.5,36.5s16.4,36.5,36.5,36.5c18,0,33-13.2,35.9-30.4
		c-14.7,4.7-28.6-6.4-28.6-20.8c0-7.4,3.6-13.8,9.2-17.8C269.7,147.3,264.1,145.7,258.2,145.7z"/>
</g>
</svg>
